<svg fill="#000000" xmlns="http://www.w3.org/2000/svg" viewBox="0 0 64 64" width="64px" height="64px"><path d="M46.949,37.524l-0.42-0.205c-0.043-0.021-4.411-2.198-5.245-2.488c-1.189-0.45-2.291-0.112-3.019,0.916l-0.326,0.457c-0.601,0.842-1.168,1.638-1.612,2.117c-0.133,0.143-0.433,0.164-0.708,0.049l-0.244-0.1c-0.979-0.396-3.016-1.219-5.538-3.462c-2.02-1.801-3.468-4.079-3.994-4.969c-0.042-0.073-0.056-0.116-0.06-0.119c0.027-0.067,0.157-0.22,0.278-0.362c0.199-0.247,0.395-0.453,0.59-0.66c0.169-0.18,0.339-0.36,0.512-0.561l0.079-0.092c0.347-0.4,0.621-0.717,0.889-1.289c0.521-1.009,0.059-1.972-0.093-2.289c-0.121-0.251-1.031-2.459-1.633-3.92l-0.67-1.624c0-0.001,0-0.002,0-0.002c-0.643-1.539-1.354-1.844-2.504-1.89C22.953,17.016,22.646,17,22.303,17c-1.373,0-2.597,0.447-3.424,1.294c-0.857,0.872-2.864,2.913-2.864,6.925c0,3.413,2.019,6.687,3.272,8.402l0.132,0.189c3.77,5.464,8.44,9.547,13.151,11.498c4.173,1.729,6.406,2.192,7.946,2.192c0.663,0,1.197-0.086,1.703-0.193c2.251-0.485,5.051-2.154,5.807-4.292c0.629-1.781,0.787-3.681,0.366-4.415C48.094,38.075,47.589,37.832,46.949,37.524z M46.142,42.35c-0.473,1.338-2.627,2.633-4.34,3.002c-1.026,0.22-2.577,0.55-8.464-1.891c-4.36-1.806-8.717-5.637-12.271-10.786c-0.09-0.131-0.152-0.22-0.213-0.303c-1.06-1.45-2.837-4.309-2.837-7.153c0-3.193,1.546-4.767,2.359-5.593C20.751,19.239,21.491,19,22.303,19c0.297,0,0.565,0.014,0.826,0.029c0.115,0.005,0.355,0.015,0.409,0.037c0.005,0.004,0.126,0.095,0.348,0.623l0.669,1.62c0.898,2.179,1.544,3.743,1.678,4.023c0.122,0.254,0.162,0.425,0.103,0.541c-0.167,0.354-0.295,0.504-0.607,0.863l-0.082,0.095c-0.152,0.177-0.302,0.335-0.452,0.493c-0.23,0.244-0.458,0.487-0.693,0.778c-0.353,0.413-1.178,1.381-0.386,2.747c0.716,1.213,2.239,3.534,4.39,5.451c2.781,2.475,5.12,3.42,6.119,3.823l0.225,0.092c1.067,0.44,2.22,0.235,2.94-0.532c0.535-0.577,1.139-1.424,1.777-2.319l0.326-0.457c0.207-0.292,0.348-0.334,0.709-0.197c0.562,0.196,3.783,1.772,5.031,2.396l0.448,0.22c0.204,0.098,0.449,0.216,0.54,0.253C46.659,39.956,46.61,41.023,46.142,42.35z"/><path d="M32.064,2.003l-0.018-0.001C32.028,2.001,32.01,2,31.991,2C15.454,2,2,15.458,2,32c0,6.199,1.869,12.121,5.412,17.163L3.96,59.454c-0.12,0.357-0.028,0.752,0.236,1.021c0.265,0.268,0.66,0.365,1.016,0.25l10.695-3.418C20.716,60.379,26.272,62,32.009,62C48.546,62,62,48.542,62,32S48.546,2.001,32.064,2.003z M32.009,60c-5.505,0-10.831-1.599-15.401-4.624c-0.166-0.109-0.358-0.166-0.552-0.166c-0.102,0-0.205,0.016-0.304,0.048l-9.267,2.961l2.986-8.903c0.103-0.308,0.051-0.646-0.14-0.907C5.843,43.621,4,37.946,4,32C4,16.561,16.557,4,31.991,4l0.018,0.001C47.443,4.001,60,16.562,60,32C60,47.439,47.443,60,32.009,60z"/><path d="M47.373 13.203c-.429-.345-1.061-.277-1.406.152-.347.43-.278 1.06.152 1.406.616.495 1.21 1.03 1.766 1.59.195.196.452.295.709.295.255 0 .51-.097.705-.291.392-.39.394-1.022.004-1.414C48.695 14.33 48.045 13.745 47.373 13.203zM26.933 10.651c4.078-1.069 8.359-.931 12.38.404 1.038.345 2.053.768 3.018 1.257.145.074.3.108.452.108.365 0 .716-.2.893-.548.25-.492.054-1.094-.439-1.344-1.053-.534-2.16-.996-3.292-1.372-4.391-1.459-9.066-1.611-13.52-.439-.534.14-.853.687-.713 1.221C25.852 10.473 26.394 10.793 26.933 10.651zM14.572 41.818c-.247-.493-.849-.693-1.342-.446L11.378 42.3c-.494.248-.694.849-.446 1.343.175.35.528.552.895.552.15 0 .303-.034.447-.105l1.852-.928C14.62 42.913 14.819 42.312 14.572 41.818zM15.972 45.884l-1.548 1.376c-.413.366-.45.998-.083 1.411.198.223.472.336.748.336.236 0 .473-.083.664-.253l1.548-1.376c.413-.366.45-.998.083-1.411C17.017 45.553 16.385 45.516 15.972 45.884zM11.512 33.024c.02.001.04.002.06.002.525 0 .966-.41.997-.941.033-.551-.388-1.024-.939-1.057l-2.068-.122c-.55-.031-1.025.389-1.057.939-.033.551.388 1.024.939 1.057L11.512 33.024zM21.173 49.246c-.461-.304-1.082-.178-1.385.285l-1.14 1.729c-.304.461-.176 1.081.285 1.385.169.111.36.165.549.165.325 0 .644-.158.836-.45l1.14-1.729C21.761 50.17 21.634 49.55 21.173 49.246zM12.93 37.084c-.111-.542-.637-.889-1.181-.778L9.72 36.723c-.541.111-.89.64-.778 1.181.097.474.514.799.979.799.066 0 .134-.007.202-.021l2.029-.417C12.692 38.153 13.041 37.625 12.93 37.084z"/></svg>